<svg width="56" height="56" fill="none" xmlns="http://www.w3.org/2000/svg"><path d="M50.314 29.858a22.34 22.34 0 11-24.17-24.17 1.317 1.317 0 11.22 2.625 19.716 19.716 0 1021.325 21.33 1.317 1.317 0 112.625.219v-.004zM26.69 15.75V28a1.313 1.313 0 001.313 1.313h12.25a1.313 1.313 0 000-2.625H29.314V15.75a1.313 1.313 0 00-2.625 0zm8.313-5.687a2.187 2.187 0 100-4.375 2.187 2.187 0 000 4.375zm7.875 5.25a2.187 2.187 0 100-4.375 2.187 2.187 0 000 4.375zm5.25 7.875a2.187 2.187 0 100-4.375 2.187 2.187 0 000 4.375z" fill="#FDFCFA"/></svg>