<svg width="56" height="56" fill="none" xmlns="http://www.w3.org/2000/svg"><path d="M43.069 28.643L31.77 24.487a.44.44 0 01-.251-.25l-4.156-11.3a3.046 3.046 0 00-5.714 0l-4.157 11.298a.44.44 0 01-.249.252l-11.3 4.156a3.045 3.045 0 000 5.714l11.298 4.156a.44.44 0 01.252.25l4.156 11.3a3.046 3.046 0 005.713 0l4.157-11.298a.44.44 0 01.25-.252l11.3-4.156a3.046 3.046 0 000-5.714zm-.908 3.25l-11.3 4.157a3.049 3.049 0 00-1.805 1.807l-4.157 11.298a.42.42 0 01-.787 0l-4.156-11.3a3.063 3.063 0 00-1.805-1.805L6.852 31.894a.42.42 0 010-.788l11.301-4.156a3.05 3.05 0 001.805-1.807l4.156-11.298a.42.42 0 01.787 0l4.157 11.3a3.049 3.049 0 001.807 1.805l11.298 4.156a.42.42 0 010 .788h-.002zM31.936 8.75a1.312 1.312 0 011.313-1.313h3.938V3.5a1.312 1.312 0 012.625 0v3.938h3.937a1.312 1.312 0 110 2.625h-3.938V14a1.312 1.312 0 11-2.624 0v-3.938h-3.938a1.312 1.312 0 01-1.313-1.312zm21.876 10.5a1.312 1.312 0 01-1.313 1.313h-2.188v2.187a1.312 1.312 0 11-2.624 0v-2.188h-2.188a1.312 1.312 0 010-2.625h2.188V15.75a1.312 1.312 0 012.625 0v2.188h2.187a1.313 1.313 0 011.313 1.312z" fill="#FDFCFA"/></svg>