<svg width="56" height="56" fill="none" xmlns="http://www.w3.org/2000/svg"><path d="M38.938 7.438c-4.594 0-8.589 2.071-10.938 5.543-2.35-3.472-6.344-5.543-10.938-5.543A13.14 13.14 0 003.938 20.563c0 6.387 3.982 13.035 11.835 19.755a73.213 73.213 0 0011.607 8.094 1.313 1.313 0 001.242 0 73.213 73.213 0 0011.607-8.094c7.853-6.72 11.834-13.368 11.834-19.755A13.14 13.14 0 0038.938 7.438zM28 45.742C24.41 43.67 6.562 32.75 6.562 20.563a10.51 10.51 0 0110.5-10.5c4.437 0 8.162 2.369 9.724 6.184a1.313 1.313 0 002.428 0c1.562-3.815 5.287-6.184 9.724-6.184a10.51 10.51 0 0110.5 10.5C49.438 32.75 31.59 43.67 28 45.742z" fill="#FDFCFA"/></svg>