<svg width="56" height="56" fill="none" xmlns="http://www.w3.org/2000/svg"><path d="M28 5.688A22.313 22.313 0 1050.313 28 22.338 22.338 0 0028 5.687zm7.978 28.437a10.034 10.034 0 000-12.25l6.834-6.832a19.646 19.646 0 010 25.91l-6.834-6.828zM20.562 28a7.437 7.437 0 1114.875 0 7.437 7.437 0 01-14.874 0zm20.392-14.812l-6.829 6.834a10.034 10.034 0 00-12.25 0l-6.83-6.834a19.646 19.646 0 0125.91 0zm-27.766 1.858l6.834 6.829a10.034 10.034 0 000 12.25l-6.834 6.83a19.646 19.646 0 010-25.91zm1.858 27.766l6.829-6.834a10.034 10.034 0 0012.25 0l6.832 6.834a19.646 19.646 0 01-25.91 0h-.001z" fill="#FDFCFA"/></svg>