<svg width="56" height="56" fill="none" xmlns="http://www.w3.org/2000/svg"><path d="M39.813 40.25a6.563 6.563 0 01-6.563 6.563c-2.822 0-5.547-1.834-6.482-4.358a1.313 1.313 0 012.464-.91c.546 1.48 2.312 2.642 4.018 2.642a3.937 3.937 0 100-7.874H8.75a1.313 1.313 0 010-2.626h24.5a6.563 6.563 0 016.563 6.563zm-7-24.5a6.563 6.563 0 00-6.563-6.563c-2.822 0-5.547 1.834-6.482 4.358a1.313 1.313 0 002.464.91c.546-1.48 2.312-2.643 4.018-2.643a3.937 3.937 0 110 7.876h-21a1.313 1.313 0 000 2.625h21a6.563 6.563 0 006.563-6.563zm12.687.438c-2.822 0-5.547 1.833-6.482 4.357a1.313 1.313 0 002.464.91c.546-1.48 2.312-2.642 4.018-2.642a3.937 3.937 0 110 7.875H7a1.313 1.313 0 000 2.625h38.5a6.563 6.563 0 100-13.125z" fill="#FDFCFA"/></svg>