<svg width="56" height="56" fill="none" xmlns="http://www.w3.org/2000/svg"><path d="M52.061 17.5a13.562 13.562 0 00-23.148-9.595l-15.33 15.153a3.049 3.049 0 00-.897 2.166v16.233l-6.615 6.615a1.313 1.313 0 101.855 1.855l6.615-6.615h16.233a3.048 3.048 0 002.166-.897l15.057-15.231.085-.088a13.474 13.474 0 003.98-9.596zM30.764 9.765a10.937 10.937 0 0115.75 15.172H32.916l8.26-8.26a1.313 1.313 0 00-1.855-1.855l-10.5 10.5-3.01 3.01V14.656l4.953-4.891zM15.31 25.224c0-.114.044-.223.123-.304l7.752-7.657v13.7l-7.875 7.876V25.224zM31.08 40.56a.437.437 0 01-.306.127H17.166l8.26-8.258 4.865-4.867h13.64L31.08 40.56z" fill="#FDFCFA"/></svg>