<svg width="102" height="158" viewBox="0 0 102 158" fill="none" xmlns="http://www.w3.org/2000/svg">
<circle opacity="0.1" cx="51" cy="128" r="30" fill="#00205F"/>
<circle opacity="0.3" cx="51" cy="128" r="13" fill="#00205F"/>
<path fill-rule="evenodd" clip-rule="evenodd" d="M14.9545 15.0908C24.5155 5.44262 37.4787 0.0154788 51 0C64.5213 0.0154788 77.4845 5.44262 87.0455 15.0908C96.6065 24.739 101.985 37.8202 102 51.4648C102 95.5023 55.6364 128.761 53.6601 130.153C52.8806 130.704 51.9518 131 51 131C50.0482 131 49.1194 130.704 48.3399 130.153C46.3636 128.761 0 95.5023 0 51.4648C0.015339 37.8202 5.39346 24.739 14.9545 15.0908Z" fill="#0D1E5C"/>
<path d="M42.2477 86.6524H41.7109V105H42.2477V86.6524Z" fill="#E7E1D8"/>
<path d="M66.6138 24.0693V54.0497C66.6138 56.8491 64.3439 59.1166 61.5469 59.1166V19.0024C62.9466 19.0024 64.2115 19.5698 65.1337 20.4849C66.0487 21.4046 66.6161 22.6695 66.6161 24.0716L66.6138 24.0693Z" fill="#E7E1D8"/>
<path d="M61.5469 59.1168C64.3463 59.1168 66.6138 61.3866 66.6138 64.1836V94.157C66.6138 96.9564 64.3463 99.2239 61.5469 99.2239V59.1144V59.1168Z" fill="#E7E1D8"/>
<path d="M58.2998 99.2261C55.5027 99.2261 53.2306 96.9539 53.2306 94.1568L53.2306 24.0693C53.2306 21.2722 55.5027 19 58.2998 19L58.2998 99.2261Z" fill="#E7E1D8"/>
<path d="M40.0205 99.231C37.2234 99.231 34.9513 96.9588 34.9513 94.1617L34.9513 24.0742C34.9513 21.2771 37.2234 19.0049 40.0205 19.0049L40.0205 99.231Z" fill="#E7E1D8"/>
<path d="M43.9443 19.005C46.7414 19.005 49.0136 21.2772 49.0136 24.0743V94.1618C49.0136 96.9589 46.7414 99.2311 43.9443 99.2311V19.005Z" fill="#E7E1D8"/>
</svg>
