<svg width="174" height="43" fill="none" xmlns="http://www.w3.org/2000/svg"><path d="M17.13 35.08v7.616h-1.65l-.049-7.567C6.451 34.79 0 27.481 0 17.565 0 7.648 6.696 0 16.016 0c9.32 0 16.016 7.405 16.016 17.565s-6.119 17.03-14.895 17.516h-.008zm0-17.467v9.917c7.76-.34 13.204-4.448 13.204-10.014 0-5.566-5.973-10.062-14.318-10.062-8.345 0-14.318 4.253-14.318 10.062 0 5.809 5.68 9.82 13.684 10.063l-.097-9.966h1.844zM67.55.535v20.368c0 8.32-5.485 14.226-13.253 14.226-7.769 0-13.343-6.1-13.343-14.42V.534H42.8v19.209c0 4.156 4.85 7.834 11.449 7.834 6.598 0 11.45-3.483 11.45-7.648V.535h1.852zm9.792-.049h15.041c5.826 0 10.092 4.359 10.092 10.16 0 3.63-2.332 6.481-5.826 7.648v.194c3.689.584 6.403 3.533 6.403 7.697 0 4.934-3.494 8.466-8.54 8.466H77.334V.486h.008zM93.553 17.07c3.494 0 6.119-2.503 6.119-4.44 0-3.264-2.617-5.08-6.306-5.08H79.195v9.52H93.56h-.008zm1.552 10.411c2.91 0 4.754-1.11 4.754-4.067 0-1.62-1.845-3.152-4.559-3.152H79.187v7.22h15.918zm40.28 0v7.162h-23.004V.486h22.614v7.065h-20.77v10.11h17.471v1.889h-17.471v7.931h21.16zm27.068-2.851h-14.367L144.3 34.642h-1.943L155.367.486h3.397l15.138 34.157h-7.183l-4.274-10.014h.008zm-.821-1.888L155.034 7.21h-.293l-5.924 15.53h12.815z" fill="#00205F"/></svg>