<svg viewBox="0 0 24 24"  xmlns="http://www.w3.org/2000/svg" style="display:none">

	<symbol viewBox="0 0 32 32" id="calendar-check">
		<path d="M26 4.25H22.75V3C22.75 2.80109 22.671 2.61032 22.5303 2.46967C22.3897 2.32902 22.1989 2.25 22 2.25C21.8011 2.25 21.6103 2.32902 21.4697 2.46967C21.329 2.61032 21.25 2.80109 21.25 3V4.25H10.75V3C10.75 2.80109 10.671 2.61032 10.5303 2.46967C10.3897 2.32902 10.1989 2.25 10 2.25C9.80109 2.25 9.61032 2.32902 9.46967 2.46967C9.32902 2.61032 9.25 2.80109 9.25 3V4.25H6C5.53587 4.25 5.09075 4.43437 4.76256 4.76256C4.43437 5.09075 4.25 5.53587 4.25 6V26C4.25 26.4641 4.43437 26.9092 4.76256 27.2374C5.09075 27.5656 5.53587 27.75 6 27.75H26C26.4641 27.75 26.9092 27.5656 27.2374 27.2374C27.5656 26.9092 27.75 26.4641 27.75 26V6C27.75 5.53587 27.5656 5.09075 27.2374 4.76256C26.9092 4.43437 26.4641 4.25 26 4.25ZM6 5.75H9.25V7C9.25 7.19891 9.32902 7.38968 9.46967 7.53033C9.61032 7.67098 9.80109 7.75 10 7.75C10.1989 7.75 10.3897 7.67098 10.5303 7.53033C10.671 7.38968 10.75 7.19891 10.75 7V5.75H21.25V7C21.25 7.19891 21.329 7.38968 21.4697 7.53033C21.6103 7.67098 21.8011 7.75 22 7.75C22.1989 7.75 22.3897 7.67098 22.5303 7.53033C22.671 7.38968 22.75 7.19891 22.75 7V5.75H26C26.0663 5.75 26.1299 5.77634 26.1768 5.82322C26.2237 5.87011 26.25 5.9337 26.25 6V10.25H5.75V6C5.75 5.9337 5.77634 5.87011 5.82322 5.82322C5.87011 5.77634 5.9337 5.75 6 5.75ZM26 26.25H6C5.9337 26.25 5.87011 26.2237 5.82322 26.1768C5.77634 26.1299 5.75 26.0663 5.75 26V11.75H26.25V26C26.25 26.0663 26.2237 26.1299 26.1768 26.1768C26.1299 26.2237 26.0663 26.25 26 26.25ZM21.03 15.47C21.1705 15.6106 21.2493 15.8012 21.2493 16C21.2493 16.1988 21.1705 16.3894 21.03 16.53L15.03 22.53C14.8894 22.6705 14.6988 22.7493 14.5 22.7493C14.3012 22.7493 14.1106 22.6705 13.97 22.53L10.97 19.53C10.8375 19.3878 10.7654 19.1998 10.7688 19.0055C10.7723 18.8112 10.851 18.6258 10.9884 18.4884C11.1258 18.351 11.3112 18.2723 11.5055 18.2688C11.6998 18.2654 11.8878 18.3375 12.03 18.47L14.5 20.9387L19.97 15.47C20.1106 15.3295 20.3012 15.2507 20.5 15.2507C20.6988 15.2507 20.8894 15.3295 21.03 15.47Z" fill="currentColor"/>
	</symbol>

	<symbol viewBox="0 0 33 32" id="tel">
		<path d="M28.1988 20.0376L22.2938 17.3913C22.0262 17.2767 21.7343 17.2306 21.4444 17.2572C21.1546 17.2838 20.8759 17.3824 20.6338 17.5438C20.6092 17.5596 20.5858 17.5771 20.5638 17.5963L17.4775 20.2213C17.4455 20.2388 17.4098 20.2485 17.3734 20.2498C17.337 20.2512 17.3007 20.244 17.2675 20.2288C15.2838 19.2713 13.2288 17.2288 12.2675 15.2726C12.2515 15.2399 12.2432 15.204 12.2432 15.1676C12.2432 15.1312 12.2515 15.0953 12.2675 15.0626L14.9013 11.9376C14.9202 11.9144 14.9377 11.8902 14.9538 11.8651C15.113 11.622 15.2092 11.343 15.2336 11.0534C15.2581 10.7638 15.21 10.4727 15.0938 10.2063L12.4663 4.31132C12.3171 3.96333 12.059 3.67312 11.7308 3.48425C11.4027 3.29538 11.0221 3.21803 10.6463 3.26382C9.0128 3.47857 7.51341 4.28074 6.42829 5.52045C5.34318 6.76015 4.74659 8.35255 4.75001 10.0001C4.75001 19.7876 12.7125 27.7501 22.5 27.7501C24.1475 27.7532 25.7397 27.1565 26.9794 26.0715C28.219 24.9864 29.0213 23.4872 29.2363 21.8538C29.282 21.4797 29.2057 21.1009 29.0187 20.7736C28.8318 20.4464 28.5442 20.1882 28.1988 20.0376ZM22.5 26.2501C13.54 26.2501 6.25001 18.9601 6.25001 10.0001C6.24584 8.71748 6.70877 7.47725 7.55232 6.51108C8.39587 5.54492 9.56233 4.91893 10.8338 4.75007H10.8625C10.9129 4.75101 10.9618 4.76715 11.0028 4.79637C11.0439 4.82559 11.0751 4.86653 11.0925 4.91382L13.73 10.8026C13.7451 10.8353 13.7528 10.8709 13.7528 10.9069C13.7528 10.943 13.7451 10.9786 13.73 11.0113L11.0913 14.1438C11.0716 14.1662 11.0536 14.19 11.0375 14.2151C10.8724 14.4671 10.7752 14.7576 10.7552 15.0583C10.7353 15.3589 10.7934 15.6597 10.9238 15.9313C12.0325 18.2013 14.32 20.4713 16.615 21.5801C16.8883 21.7098 17.1905 21.7664 17.4921 21.7445C17.7938 21.7226 18.0846 21.6229 18.3363 21.4551C18.36 21.4388 18.3838 21.4213 18.4063 21.4026L21.4913 18.7776C21.5217 18.7612 21.5554 18.7516 21.5899 18.7494C21.6244 18.7473 21.659 18.7526 21.6913 18.7651L27.5975 21.4113C27.6458 21.4319 27.6863 21.4671 27.7135 21.5119C27.7406 21.5568 27.753 21.6091 27.7488 21.6613C27.5808 22.9333 26.9554 24.1007 25.9894 24.9452C25.0235 25.7897 23.7831 26.2535 22.5 26.2501Z" fill="currentColor"/>
	</symbol>

	<symbol viewBox="0 0 32 32" id="arrow-next">
		<path d="M31.7866 18.0008L23.0323 26.7551C22.894 26.884 22.7111 26.9541 22.5221 26.9508C22.3331 26.9475 22.1528 26.8709 22.0191 26.7372C21.8854 26.6036 21.8089 26.4232 21.8055 26.2342C21.8022 26.0453 21.8724 25.8623 22.0012 25.724L29.5093 18.2148H0.909217C0.715734 18.2148 0.530175 18.1379 0.393362 18.0011C0.256549 17.8643 0.179688 17.6787 0.179688 17.4852C0.179688 17.2917 0.256549 17.1062 0.393362 16.9694C0.530175 16.8326 0.715734 16.7557 0.909217 16.7557H29.5093L22.0012 9.2464C21.8724 9.1081 21.8022 8.92519 21.8055 8.73619C21.8089 8.54719 21.8854 8.36687 22.0191 8.23321C22.1528 8.09954 22.3331 8.02298 22.5221 8.01964C22.7111 8.01631 22.894 8.08646 23.0323 8.21533L31.7866 16.9697C31.9233 17.1065 32 17.2919 32 17.4852C32 17.6785 31.9233 17.864 31.7866 18.0008Z" fill="currentColor"/>
	</symbol>

	<symbol viewBox="0 0 49 35" id="slider-arrow-next">
		<path d="M48.6102 16.5469L32.6162 0.361984C32.3636 0.123745 32.0294 -0.00595474 31.6841 0.000209808C31.3388 0.00637817 31.0094 0.147926 30.7652 0.395039C30.521 0.642151 30.3811 0.975533 30.375 1.32495C30.3689 1.67436 30.4971 2.01253 30.7325 2.26821L44.4496 16.1513L1.33283 16.1513C0.979342 16.1513 0.640332 16.2934 0.390378 16.5463C0.140423 16.7992 0 17.1423 0 17.5C0 17.8577 0.140423 18.2008 0.390378 18.4537C0.640332 18.7066 0.979342 18.8487 1.33283 18.8487L44.4496 18.8487L30.7325 32.7318C30.4971 32.9875 30.3689 33.3256 30.375 33.6751C30.3811 34.0245 30.521 34.3578 30.7652 34.605C31.0094 34.8521 31.3388 34.9936 31.6841 34.9998C32.0294 35.006 32.3636 34.8763 32.6162 34.638L48.6102 18.4531C48.8598 18.2002 49 17.8574 49 17.5C49 17.1426 48.8598 16.7998 48.6102 16.5469Z" fill="currentColor"/>
	</symbol>

	<symbol viewBox="0 0 32 32" id="instagram">
		<path d="M16 10.25C14.8628 10.25 13.7511 10.5872 12.8055 11.219C11.8599 11.8509 11.1229 12.7489 10.6877 13.7996C10.2525 14.8502 10.1386 16.0064 10.3605 17.1218C10.5824 18.2372 11.13 19.2617 11.9341 20.0659C12.7383 20.87 13.7628 21.4177 14.8782 21.6395C15.9936 21.8614 17.1498 21.7475 18.2004 21.3123C19.2511 20.8771 20.1491 20.1401 20.781 19.1945C21.4128 18.2489 21.75 17.1372 21.75 16C21.748 14.4756 21.1416 13.0142 20.0637 11.9363C18.9858 10.8584 17.5244 10.252 16 10.25ZM16 20.25C15.1594 20.25 14.3377 20.0007 13.6388 19.5337C12.9399 19.0668 12.3952 18.403 12.0735 17.6264C11.7518 16.8498 11.6677 15.9953 11.8317 15.1709C11.9956 14.3464 12.4004 13.5892 12.9948 12.9948C13.5892 12.4004 14.3464 11.9956 15.1709 11.8317C15.9953 11.6677 16.8498 11.7518 17.6264 12.0735C18.403 12.3952 19.0668 12.9399 19.5337 13.6388C20.0007 14.3377 20.25 15.1594 20.25 16C20.25 17.1272 19.8022 18.2082 19.0052 19.0052C18.2082 19.8022 17.1272 20.25 16 20.25ZM22 3.25H10C8.2104 3.25199 6.49466 3.96378 5.22922 5.22922C3.96378 6.49466 3.25199 8.2104 3.25 10V22C3.25199 23.7896 3.96378 25.5053 5.22922 26.7708C6.49466 28.0362 8.2104 28.748 10 28.75H22C23.7896 28.748 25.5053 28.0362 26.7708 26.7708C28.0362 25.5053 28.748 23.7896 28.75 22V10C28.748 8.2104 28.0362 6.49466 26.7708 5.22922C25.5053 3.96378 23.7896 3.25199 22 3.25ZM27.25 22C27.25 23.3924 26.6969 24.7277 25.7123 25.7123C24.7277 26.6969 23.3924 27.25 22 27.25H10C8.60761 27.25 7.27225 26.6969 6.28769 25.7123C5.30312 24.7277 4.75 23.3924 4.75 22V10C4.75 8.60761 5.30312 7.27225 6.28769 6.28769C7.27225 5.30312 8.60761 4.75 10 4.75H22C23.3924 4.75 24.7277 5.30312 25.7123 6.28769C26.6969 7.27225 27.25 8.60761 27.25 10V22ZM23.75 9.5C23.75 9.74723 23.6767 9.9889 23.5393 10.1945C23.402 10.4 23.2068 10.5602 22.9784 10.6548C22.7499 10.7495 22.4986 10.7742 22.2561 10.726C22.0137 10.6778 21.7909 10.5587 21.6161 10.3839C21.4413 10.2091 21.3223 9.98634 21.274 9.74386C21.2258 9.50139 21.2505 9.25005 21.3451 9.02165C21.4398 8.79324 21.6 8.59801 21.8055 8.46066C22.0111 8.32331 22.2528 8.25 22.5 8.25C22.8315 8.25 23.1495 8.3817 23.3839 8.61612C23.6183 8.85054 23.75 9.16848 23.75 9.5Z" fill="currentColor"/>
	</symbol>

	<symbol viewBox="0 0 32 32" id="close">
		<path d="M25.7071 24.2925C25.8 24.3854 25.8737 24.4957 25.924 24.6171C25.9743 24.7385 26.0001 24.8686 26.0001 25C26.0001 25.1314 25.9743 25.2615 25.924 25.3829C25.8737 25.5043 25.8 25.6146 25.7071 25.7075C25.6142 25.8004 25.5039 25.8741 25.3825 25.9244C25.2611 25.9747 25.131 26.0006 24.9996 26.0006C24.8682 26.0006 24.7381 25.9747 24.6167 25.9244C24.4953 25.8741 24.385 25.8004 24.2921 25.7075L15.9996 17.4138L7.70708 25.7075C7.51944 25.8951 7.26494 26.0006 6.99958 26.0006C6.73422 26.0006 6.47972 25.8951 6.29208 25.7075C6.10444 25.5199 5.99902 25.2654 5.99902 25C5.99902 24.7346 6.10444 24.4801 6.29208 24.2925L14.5858 16L6.29208 7.70751C6.10444 7.51987 5.99902 7.26537 5.99902 7.00001C5.99902 6.73464 6.10444 6.48015 6.29208 6.29251C6.47972 6.10487 6.73422 5.99945 6.99958 5.99945C7.26494 5.99945 7.51944 6.10487 7.70708 6.29251L15.9996 14.5863L24.2921 6.29251C24.4797 6.10487 24.7342 5.99945 24.9996 5.99945C25.2649 5.99945 25.5194 6.10487 25.7071 6.29251C25.8947 6.48015 26.0001 6.73464 26.0001 7.00001C26.0001 7.26537 25.8947 7.51987 25.7071 7.70751L17.4133 16L25.7071 24.2925Z" fill="currentColor"/>
	</symbol>

	<symbol viewBox="0 0 24 20" id="like">
		<path d="M24 6.45986C24 13.7532 12.8796 19.6567 12.4061 19.9005C12.2813 19.9658 12.1417 20 12 20C11.8583 20 11.7187 19.9658 11.5939 19.9005C11.1204 19.6567 0 13.7532 0 6.45986C0.00198508 4.74719 0.702493 3.10522 1.94784 1.89418C3.19319 0.683141 4.88167 0.00193039 6.64286 0C8.85536 0 10.7925 0.925218 12 2.48913C13.2075 0.925218 15.1446 0 17.3571 0C19.1183 0.00193039 20.8068 0.683141 22.0522 1.89418C23.2975 3.10522 23.998 4.74719 24 6.45986Z" fill="#FDFCFA"/>
	</symbol>

	<symbol viewBox="0 0 24 25" id="navigation-arrow">
		<path d="M22.5005 10.9037C22.4982 11.2206 22.3941 11.5284 22.2035 11.7816C22.0129 12.0348 21.7459 12.22 21.442 12.3099L14.2645 14.5187L12.0558 21.6962C11.9658 22 11.7805 22.2669 11.5273 22.4574C11.2741 22.648 10.9664 22.7522 10.6495 22.7546H10.6214C10.3107 22.7575 10.0069 22.6624 9.75328 22.4828C9.49966 22.3033 9.30907 22.0484 9.20859 21.7543L3.09421 5.26273C3.09224 5.25787 3.09067 5.25285 3.08953 5.24773C2.99812 4.98226 2.98306 4.69647 3.04605 4.42286C3.10904 4.14925 3.24756 3.89882 3.44585 3.70004C3.64413 3.50127 3.89423 3.36214 4.16768 3.29847C4.44113 3.23481 4.72696 3.24917 4.99265 3.33992L5.00765 3.3446L21.5002 9.46273C21.7988 9.5648 22.0569 9.7597 22.2369 10.0189C22.4169 10.2782 22.5092 10.5882 22.5005 10.9037Z" fill="currentColor"/>
	</symbol>

	<symbol viewBox="0 0 24 25" id="walk">
		<path d="M20.2557 18.2556V19.3806C20.2557 20.2765 19.8998 21.1356 19.2664 21.7691C18.6329 22.4025 17.7737 22.7584 16.8779 22.7584C15.982 22.7584 15.1229 22.4025 14.4894 21.7691C13.856 21.1356 13.5001 20.2765 13.5001 19.3806V18.2556C13.5001 18.0567 13.5791 17.8659 13.7198 17.7253C13.8604 17.5846 14.0512 17.5056 14.2501 17.5056H19.5001C19.599 17.5049 19.6972 17.5237 19.7888 17.5611C19.8805 17.5984 19.9638 17.6536 20.0341 17.7233C20.1043 17.793 20.16 17.8759 20.1981 17.9673C20.2361 18.0587 20.2557 18.1566 20.2557 18.2556ZM9.75008 15.2556H4.50008C4.30117 15.2556 4.1104 15.3346 3.96975 15.4753C3.8291 15.6159 3.75008 15.8067 3.75008 16.0056V17.1306C3.75008 18.0257 4.10566 18.8842 4.7386 19.5171C5.37153 20.15 6.22998 20.5056 7.12508 20.5056C8.02019 20.5056 8.87863 20.15 9.51157 19.5171C10.1445 18.8842 10.5001 18.0257 10.5001 17.1306V16.0056C10.5001 15.8067 10.4211 15.6159 10.2804 15.4753C10.1398 15.3346 9.94899 15.2556 9.75008 15.2556ZM7.12508 1.75562C6.03383 1.75562 4.97539 2.72218 4.14383 4.47436C2.83789 7.22874 2.40383 11.3181 4.17102 13.4744C4.24148 13.5604 4.33019 13.6296 4.43072 13.6771C4.53125 13.7247 4.64108 13.7492 4.75227 13.7491H9.49133C9.60252 13.7492 9.71235 13.7247 9.81288 13.6771C9.91341 13.6296 10.0021 13.5604 10.0726 13.4744C11.8398 11.3181 11.4057 7.22593 10.0998 4.47436C9.26727 2.72218 8.20977 1.75562 7.12508 1.75562ZM14.5126 16.0056H19.2516C19.3628 16.0058 19.4727 15.9812 19.5732 15.9337C19.6737 15.8862 19.7624 15.8169 19.8329 15.7309C21.6001 13.5747 21.166 9.48249 19.8601 6.73093C19.0248 4.97218 17.9663 4.00561 16.8751 4.00561C15.7838 4.00561 14.7291 4.97218 13.8966 6.72436C12.5907 9.47874 12.1566 13.5681 13.9238 15.7244C13.994 15.8121 14.0831 15.8829 14.1843 15.9316C14.2856 15.9802 14.3965 16.0055 14.5088 16.0056H14.5126Z" fill="currentColor"/>
	</symbol>

	<symbol viewBox="0 0 24 25" id="car">
		<path d="M22.5 10.7556H21.4875L18.8831 4.89624C18.7653 4.63114 18.5731 4.40591 18.3298 4.24783C18.0865 4.08976 17.8026 4.00562 17.5125 4.00562H6.4875C6.19738 4.00562 5.91349 4.08976 5.67022 4.24783C5.42695 4.40591 5.23474 4.63114 5.11688 4.89624L2.5125 10.7556H1.5C1.30109 10.7556 1.11032 10.8346 0.96967 10.9753C0.829018 11.1159 0.75 11.3067 0.75 11.5056C0.75 11.7045 0.829018 11.8953 0.96967 12.0359C1.11032 12.1766 1.30109 12.2556 1.5 12.2556H2.25V19.7556C2.25 20.1534 2.40804 20.535 2.68934 20.8163C2.97064 21.0976 3.35218 21.2556 3.75 21.2556H6C6.39782 21.2556 6.77936 21.0976 7.06066 20.8163C7.34196 20.535 7.5 20.1534 7.5 19.7556V18.2556H16.5V19.7556C16.5 20.1534 16.658 20.535 16.9393 20.8163C17.2206 21.0976 17.6022 21.2556 18 21.2556H20.25C20.6478 21.2556 21.0294 21.0976 21.3107 20.8163C21.592 20.535 21.75 20.1534 21.75 19.7556V12.2556H22.5C22.6989 12.2556 22.8897 12.1766 23.0303 12.0359C23.171 11.8953 23.25 11.7045 23.25 11.5056C23.25 11.3067 23.171 11.1159 23.0303 10.9753C22.8897 10.8346 22.6989 10.7556 22.5 10.7556ZM7.5 15.2556H6C5.80109 15.2556 5.61032 15.1766 5.46967 15.0359C5.32902 14.8953 5.25 14.7045 5.25 14.5056C5.25 14.3067 5.32902 14.1159 5.46967 13.9753C5.61032 13.8346 5.80109 13.7556 6 13.7556H7.5C7.69891 13.7556 7.88968 13.8346 8.03033 13.9753C8.17098 14.1159 8.25 14.3067 8.25 14.5056C8.25 14.7045 8.17098 14.8953 8.03033 15.0359C7.88968 15.1766 7.69891 15.2556 7.5 15.2556ZM16.5 15.2556C16.3011 15.2556 16.1103 15.1766 15.9697 15.0359C15.829 14.8953 15.75 14.7045 15.75 14.5056C15.75 14.3067 15.829 14.1159 15.9697 13.9753C16.1103 13.8346 16.3011 13.7556 16.5 13.7556H18C18.1989 13.7556 18.3897 13.8346 18.5303 13.9753C18.671 14.1159 18.75 14.3067 18.75 14.5056C18.75 14.7045 18.671 14.8953 18.5303 15.0359C18.3897 15.1766 18.1989 15.2556 18 15.2556H16.5Z" fill="currentColor"/>
	</symbol>

	<symbol viewBox="0 0 32 33" id="email">
		<path d="M28 6.75H4C3.80109 6.75 3.61032 6.82902 3.46967 6.96967C3.32902 7.11032 3.25 7.30109 3.25 7.5V24.5C3.25 24.9641 3.43437 25.4092 3.76256 25.7374C4.09075 26.0656 4.53587 26.25 5 26.25H27C27.4641 26.25 27.9092 26.0656 28.2374 25.7374C28.5656 25.4092 28.75 24.9641 28.75 24.5V7.5C28.75 7.30109 28.671 7.11032 28.5303 6.96967C28.3897 6.82902 28.1989 6.75 28 6.75ZM16 17.4825L5.9275 8.25H26.0725L16 17.4825ZM12.7087 16.5L4.75 23.795V9.205L12.7087 16.5ZM13.8188 17.5175L15.5 19.0525C15.6383 19.179 15.8189 19.2491 16.0063 19.2491C16.1936 19.2491 16.3742 19.179 16.5125 19.0525L18.1875 17.5175L26.0725 24.75H5.92875L13.8188 17.5175ZM19.2913 16.5L27.25 9.205V23.795L19.2913 16.5Z" fill="currentColor"/>	
	</symbol>

	<symbol viewBox="0 0 32 32" id="handheart">
		<path d="M28.64 17.8311C28.2976 17.5674 27.8989 17.3864 27.475 17.3023C27.051 17.2181 26.6134 17.2331 26.1963 17.3461L25.6563 17.4711C28.375 14.9436 29.75 12.4386 29.75 9.99987C29.75 6.82987 27.2013 4.24987 24.0675 4.24987C23.1837 4.24433 22.3108 4.44479 21.518 4.83534C20.7252 5.22589 20.0342 5.7958 19.5 6.49987C18.9658 5.7958 18.2749 5.22589 17.482 4.83534C16.6892 4.44479 15.8163 4.24433 14.9325 4.24987C11.7988 4.24987 9.25 6.82987 9.25 9.99987C9.25 11.4224 9.70375 12.8111 10.6613 14.2949C9.87638 14.4159 9.15094 14.7852 8.59125 15.3486L5.69 18.2499H2C1.53587 18.2499 1.09075 18.4342 0.762563 18.7624C0.434374 19.0906 0.25 19.5357 0.25 19.9999V24.9999C0.25 25.464 0.434374 25.9091 0.762563 26.2373C1.09075 26.5655 1.53587 26.7499 2 26.7499H15C15.0615 26.7499 15.1228 26.7423 15.1825 26.7274L23.1825 24.7274C23.2204 24.7173 23.2575 24.7048 23.2938 24.6899L28.1463 22.6249L28.1875 22.6061C28.6165 22.3919 28.984 22.0719 29.2552 21.6764C29.5264 21.2809 29.6925 20.8228 29.7377 20.3454C29.783 19.868 29.706 19.3869 29.5139 18.9474C29.3219 18.508 29.0211 18.1247 28.64 17.8336V17.8311ZM14.9325 5.74987C15.7573 5.73886 16.5667 5.97422 17.257 6.42581C17.9473 6.87741 18.4872 7.5247 18.8075 8.28487C18.864 8.42243 18.9601 8.54008 19.0837 8.62288C19.2072 8.70568 19.3525 8.74989 19.5013 8.74989C19.65 8.74989 19.7953 8.70568 19.9188 8.62288C20.0424 8.54008 20.1385 8.42243 20.195 8.28487C20.5153 7.5247 21.0552 6.87741 21.7455 6.42581C22.4358 5.97422 23.2452 5.73886 24.07 5.74987C26.335 5.74987 28.25 7.69612 28.25 9.99987C28.25 12.5299 26.2275 15.3749 22.4 18.2186L20.5413 18.6461C20.7266 18.1543 20.79 17.6248 20.7258 17.1032C20.6616 16.5815 20.4719 16.0831 20.1729 15.6509C19.8739 15.2186 19.4744 14.8653 19.0089 14.6213C18.5434 14.3773 18.0256 14.2499 17.5 14.2499H12.4588C11.295 12.7086 10.75 11.3511 10.75 9.99987C10.75 7.69612 12.665 5.74987 14.9325 5.74987ZM1.75 24.9999V19.9999C1.75 19.9336 1.77634 19.87 1.82322 19.8231C1.87011 19.7762 1.9337 19.7499 2 19.7499H5.25V25.2499H2C1.9337 25.2499 1.87011 25.2235 1.82322 25.1766C1.77634 25.1298 1.75 25.0662 1.75 24.9999ZM27.535 21.2499L22.76 23.2836L14.9075 25.2499H6.75V19.3111L9.65125 16.4086C9.85974 16.199 10.1077 16.0329 10.3809 15.9198C10.654 15.8067 10.9469 15.749 11.2425 15.7499H17.5C17.9641 15.7499 18.4093 15.9342 18.7374 16.2624C19.0656 16.5906 19.25 17.0357 19.25 17.4999C19.25 17.964 19.0656 18.4091 18.7374 18.7373C18.4093 19.0655 17.9641 19.2499 17.5 19.2499H14C13.8011 19.2499 13.6103 19.3289 13.4697 19.4695C13.329 19.6102 13.25 19.801 13.25 19.9999C13.25 20.1988 13.329 20.3895 13.4697 20.5302C13.6103 20.6709 13.8011 20.7499 14 20.7499H18C18.0564 20.7499 18.1126 20.7436 18.1675 20.7311L26.5425 18.8049L26.5725 18.7974C26.8877 18.7114 27.2236 18.745 27.5156 18.8916C27.8075 19.0382 28.0351 19.2875 28.1544 19.5917C28.2738 19.8958 28.2766 20.2333 28.1622 20.5394C28.0479 20.8454 27.8245 21.0985 27.535 21.2499Z" fill="currentColor"/>	
	</symbol>

	<symbol viewBox="0 0 56 56" id="heart">
		<path d="M38.9375 7.4375C34.3438 7.4375 30.3494 9.50906 28 12.9806C25.6506 9.50906 21.6562 7.4375 17.0625 7.4375C13.5828 7.44155 10.2467 8.82566 7.7862 11.2862C5.32566 13.7467 3.94155 17.0828 3.9375 20.5625C3.9375 26.95 7.91875 33.5978 15.7719 40.3178C19.3704 43.3842 23.2575 46.0947 27.3787 48.4116C27.5697 48.5142 27.7832 48.5679 28 48.5679C28.2168 48.5679 28.4303 48.5142 28.6213 48.4116C32.7425 46.0947 36.6296 43.3842 40.2281 40.3178C48.0812 33.5978 52.0625 26.95 52.0625 20.5625C52.0584 17.0828 50.6743 13.7467 48.2138 11.2862C45.7533 8.82566 42.4172 7.44155 38.9375 7.4375ZM28 45.7428C24.4103 43.6713 6.5625 32.7513 6.5625 20.5625C6.5654 17.7786 7.67257 15.1096 9.64108 13.1411C11.6096 11.1726 14.2786 10.0654 17.0625 10.0625C21.4988 10.0625 25.2241 12.4316 26.7859 16.2466C26.8848 16.4873 27.053 16.6932 27.2692 16.8381C27.4854 16.983 27.7398 17.0604 28 17.0604C28.2602 17.0604 28.5146 16.983 28.7308 16.8381C28.947 16.6932 29.1152 16.4873 29.2141 16.2466C30.7759 12.4316 34.5012 10.0625 38.9375 10.0625C41.7214 10.0654 44.3904 11.1726 46.3589 13.1411C48.3274 15.1096 49.4346 17.7786 49.4375 20.5625C49.4375 32.7513 31.5897 43.6713 28 45.7428Z" fill="currentColor"/>
	</symbol>

</svg>