<svg width="102" height="158" fill="none" xmlns="http://www.w3.org/2000/svg"><circle opacity=".1" cx="51" cy="128" r="30" fill="#00205F"/><circle opacity=".3" cx="51" cy="128" r="13" fill="#00205F"/><path fill-rule="evenodd" clip-rule="evenodd" d="M14.954 15.09C24.515 5.444 37.48.016 51 0c13.521.015 26.484 5.443 36.046 15.09 9.56 9.649 14.939 22.73 14.954 36.375 0 44.037-46.364 77.296-48.34 78.688A4.608 4.608 0 0151 131c-.952 0-1.88-.296-2.66-.847C46.364 128.761 0 95.503 0 51.465.015 37.82 5.393 24.739 14.954 15.09z" fill="#0D1E5C"/><path d="M42.248 86.652h-.537V105h.537V86.652zM66.614 24.07v29.98c0 2.8-2.27 5.067-5.067 5.067V19.002a5.067 5.067 0 015.07 5.07l-.003-.003z" fill="#E7E1D8"/><path d="M61.547 59.117c2.8 0 5.067 2.27 5.067 5.067v29.973c0 2.8-2.268 5.067-5.067 5.067v-40.11.003zM58.3 99.226a5.073 5.073 0 01-5.07-5.07V24.07A5.073 5.073 0 0158.3 19v80.226zm-18.28.005a5.073 5.073 0 01-5.069-5.07V24.075a5.073 5.073 0 015.07-5.07v80.227zm3.924-80.226a5.073 5.073 0 015.07 5.07v70.087a5.073 5.073 0 01-5.07 5.07V19.004z" fill="#E7E1D8"/></svg>