<svg width="56" height="56" viewBox="0 0 56 56" fill="none" xmlns="http://www.w3.org/2000/svg">
<path d="M44.6775 30.5725C44.8065 30.6927 44.9099 30.8376 44.9816 30.9986C45.0534 31.1596 45.0919 31.3334 45.095 31.5096C45.0981 31.6858 45.0657 31.8609 44.9997 32.0243C44.9337 32.1877 44.8354 32.3362 44.7108 32.4608C44.5862 32.5854 44.4377 32.6837 44.2743 32.7497C44.1109 32.8157 43.9358 32.8481 43.7596 32.845C43.5834 32.8419 43.4096 32.8034 43.2486 32.7316C43.0876 32.6599 42.9427 32.5565 42.8225 32.4275L29.3125 18.9197V49C29.3125 49.3481 29.1742 49.6819 28.9281 49.9281C28.6819 50.1742 28.3481 50.3125 28 50.3125C27.6519 50.3125 27.3181 50.1742 27.0719 49.9281C26.8258 49.6819 26.6875 49.3481 26.6875 49V18.9197L13.1775 32.4275C12.9287 32.6593 12.5996 32.7856 12.2596 32.7796C11.9196 32.7736 11.5951 32.6358 11.3547 32.3953C11.1142 32.1549 10.9764 31.8304 10.9704 31.4904C10.9644 31.1504 11.0907 30.8213 11.3225 30.5725L27.0725 14.8225C27.3186 14.5767 27.6522 14.4387 28 14.4387C28.3478 14.4387 28.6814 14.5767 28.9275 14.8225L44.6775 30.5725ZM47.25 7.4375H8.75C8.4019 7.4375 8.06806 7.57578 7.82192 7.82192C7.57578 8.06806 7.4375 8.4019 7.4375 8.75C7.4375 9.0981 7.57578 9.43194 7.82192 9.67808C8.06806 9.92422 8.4019 10.0625 8.75 10.0625H47.25C47.5981 10.0625 47.9319 9.92422 48.1781 9.67808C48.4242 9.43194 48.5625 9.0981 48.5625 8.75C48.5625 8.4019 48.4242 8.06806 48.1781 7.82192C47.9319 7.57578 47.5981 7.4375 47.25 7.4375Z" fill="#FDFCFA"/>
</svg>
