<svg width="56" height="56" viewBox="0 0 56 56" fill="none" xmlns="http://www.w3.org/2000/svg">
<path d="M52.0611 17.4997C52.061 14.8179 51.2659 12.1963 49.7761 9.96624C48.2864 7.73622 46.169 5.99791 43.6915 4.97106C41.2141 3.9442 38.4878 3.6749 35.8573 4.19719C33.2268 4.71947 30.8102 6.0099 28.9129 7.90536L13.5829 23.0582C13.298 23.3421 13.072 23.6797 12.9181 24.0514C12.7642 24.423 12.6853 24.8215 12.6861 25.2238V41.4572L6.07106 48.0722C5.94211 48.1924 5.83868 48.3373 5.76694 48.4983C5.69521 48.6593 5.65663 48.8331 5.65352 49.0093C5.65042 49.1856 5.68283 49.3606 5.74885 49.524C5.81486 49.6875 5.91311 49.8359 6.03774 49.9606C6.16238 50.0852 6.31084 50.1834 6.47426 50.2495C6.63769 50.3155 6.81274 50.3479 6.98897 50.3448C7.1652 50.3417 7.339 50.3031 7.5 50.2314C7.661 50.1596 7.8059 50.0562 7.92606 49.9272L14.5411 43.3122H30.7745C31.1768 43.313 31.5753 43.2341 31.9469 43.0802C32.3186 42.9263 32.6562 42.7003 32.9401 42.4154L47.9967 27.1838L48.082 27.0963C49.3473 25.8396 50.3505 24.3442 51.0335 22.6969C51.7166 21.0496 52.0658 19.283 52.0611 17.4997ZM30.7636 9.76474C32.7925 7.75239 35.5285 6.61404 38.386 6.59324C41.2436 6.57243 43.9959 7.67082 46.0539 9.6534C48.1119 11.636 49.3123 14.3453 49.3982 17.2017C49.4841 20.058 48.4487 22.8346 46.5136 24.9372H32.9161L41.1761 16.6772C41.4079 16.4284 41.5341 16.0993 41.5281 15.7593C41.5221 15.4193 41.3844 15.0949 41.1439 14.8544C40.9034 14.6139 40.579 14.4762 40.239 14.4702C39.8989 14.4642 39.5699 14.5904 39.3211 14.8222L28.8211 25.3222L25.8111 28.3322V14.656L30.7636 9.76474ZM15.3111 25.2238C15.3109 25.1104 15.3549 25.0014 15.4336 24.9197L23.1861 17.2635V30.9638L15.3111 38.8388V25.2238ZM31.0807 40.5604C30.9993 40.6412 30.8893 40.6868 30.7745 40.6872H17.1661L25.4261 32.4294L30.2911 27.5622H43.9301L31.0807 40.5604Z" fill="#FDFCFA"/>
</svg>
