<svg width="56" height="56" viewBox="0 0 56 56" fill="none" xmlns="http://www.w3.org/2000/svg">
<path d="M39.8125 40.25C39.8125 41.9905 39.1211 43.6597 37.8904 44.8904C36.6597 46.1211 34.9905 46.8125 33.25 46.8125C30.4281 46.8125 27.7025 44.9794 26.7684 42.455C26.6478 42.1284 26.6618 41.7672 26.8074 41.4509C26.9531 41.1346 27.2184 40.8891 27.545 40.7684C27.8716 40.6478 28.2328 40.6618 28.5491 40.8074C28.8654 40.9531 29.1109 41.2184 29.2316 41.545C29.7784 43.0259 31.5438 44.1875 33.25 44.1875C34.2943 44.1875 35.2958 43.7727 36.0342 43.0342C36.7727 42.2958 37.1875 41.2943 37.1875 40.25C37.1875 39.2057 36.7727 38.2042 36.0342 37.4658C35.2958 36.7273 34.2943 36.3125 33.25 36.3125H8.75C8.4019 36.3125 8.06806 36.1742 7.82192 35.9281C7.57578 35.6819 7.4375 35.3481 7.4375 35C7.4375 34.6519 7.57578 34.3181 7.82192 34.0719C8.06806 33.8258 8.4019 33.6875 8.75 33.6875H33.25C34.9905 33.6875 36.6597 34.3789 37.8904 35.6096C39.1211 36.8403 39.8125 38.5095 39.8125 40.25ZM32.8125 15.75C32.8125 14.0095 32.1211 12.3403 30.8904 11.1096C29.6597 9.8789 27.9905 9.1875 26.25 9.1875C23.4281 9.1875 20.7025 11.0206 19.7684 13.545C19.6478 13.8716 19.6618 14.2328 19.8074 14.5491C19.9531 14.8654 20.2184 15.1109 20.545 15.2316C20.8716 15.3522 21.2328 15.3382 21.5491 15.1926C21.8654 15.0469 22.1109 14.7816 22.2316 14.455C22.7784 12.9741 24.5438 11.8125 26.25 11.8125C27.2943 11.8125 28.2958 12.2273 29.0342 12.9658C29.7727 13.7042 30.1875 14.7057 30.1875 15.75C30.1875 16.7943 29.7727 17.7958 29.0342 18.5342C28.2958 19.2727 27.2943 19.6875 26.25 19.6875H5.25C4.9019 19.6875 4.56806 19.8258 4.32192 20.0719C4.07578 20.3181 3.9375 20.6519 3.9375 21C3.9375 21.3481 4.07578 21.6819 4.32192 21.9281C4.56806 22.1742 4.9019 22.3125 5.25 22.3125H26.25C27.9905 22.3125 29.6597 21.6211 30.8904 20.3904C32.1211 19.1597 32.8125 17.4905 32.8125 15.75ZM45.5 16.1875C42.6781 16.1875 39.9525 18.0206 39.0184 20.545C38.9587 20.7067 38.9314 20.8786 38.9381 21.0509C38.9448 21.2232 38.9853 21.3925 39.0574 21.5491C39.1295 21.7057 39.2318 21.8466 39.3583 21.9637C39.4849 22.0808 39.6333 22.1718 39.795 22.2316C39.9567 22.2913 40.1286 22.3186 40.3009 22.3119C40.4732 22.3052 40.6425 22.2647 40.7991 22.1926C40.9557 22.1205 41.0966 22.0182 41.2137 21.8917C41.3308 21.7651 41.4218 21.6167 41.4816 21.455C42.0284 19.9741 43.7938 18.8125 45.5 18.8125C46.5443 18.8125 47.5458 19.2273 48.2842 19.9658C49.0227 20.7042 49.4375 21.7057 49.4375 22.75C49.4375 23.7943 49.0227 24.7958 48.2842 25.5342C47.5458 26.2727 46.5443 26.6875 45.5 26.6875H7C6.6519 26.6875 6.31806 26.8258 6.07192 27.0719C5.82578 27.3181 5.6875 27.6519 5.6875 28C5.6875 28.3481 5.82578 28.6819 6.07192 28.9281C6.31806 29.1742 6.6519 29.3125 7 29.3125H45.5C47.2405 29.3125 48.9097 28.6211 50.1404 27.3904C51.3711 26.1597 52.0625 24.4905 52.0625 22.75C52.0625 21.0095 51.3711 19.3403 50.1404 18.1096C48.9097 16.8789 47.2405 16.1875 45.5 16.1875Z" fill="#FDFCFA"/>
</svg>
