<svg width="56" height="56" viewBox="0 0 56 56" fill="none" xmlns="http://www.w3.org/2000/svg">
<path d="M43.0687 28.6431L31.7703 24.4869C31.7133 24.4651 31.6615 24.4317 31.6181 24.3888C31.5748 24.3458 31.5409 24.2943 31.5187 24.2375L27.3625 12.9369C27.147 12.3527 26.7576 11.8486 26.2468 11.4925C25.736 11.1365 25.1283 10.9456 24.5056 10.9456C23.8829 10.9456 23.2752 11.1365 22.7644 11.4925C22.2536 11.8486 21.8642 12.3527 21.6487 12.9369L17.4925 24.2353C17.4707 24.2923 17.4373 24.3441 17.3944 24.3875C17.3514 24.4308 17.2999 24.4646 17.2431 24.4869L5.94247 28.6431C5.35827 28.8586 4.85417 29.248 4.49812 29.7588C4.14206 30.2696 3.95117 30.8773 3.95117 31.5C3.95117 32.1227 4.14206 32.7304 4.49812 33.2412C4.85417 33.752 5.35827 34.1414 5.94247 34.3569L17.2409 38.5131C17.2979 38.5349 17.3497 38.5683 17.3931 38.6112C17.4364 38.6542 17.4702 38.7057 17.4925 38.7625L21.6487 50.0631C21.8642 50.6473 22.2536 51.1514 22.7644 51.5075C23.2752 51.8635 23.8829 52.0544 24.5056 52.0544C25.1283 52.0544 25.736 51.8635 26.2468 51.5075C26.7576 51.1514 27.147 50.6473 27.3625 50.0631L31.5187 38.7647C31.5405 38.7077 31.5739 38.6559 31.6168 38.6125C31.6598 38.5692 31.7113 38.5354 31.7681 38.5131L43.0687 34.3569C43.6529 34.1414 44.157 33.752 44.5131 33.2412C44.8691 32.7304 45.06 32.1227 45.06 31.5C45.06 30.8773 44.8691 30.2696 44.5131 29.7588C44.157 29.248 43.6529 28.8586 43.0687 28.6431ZM42.1609 31.8937L30.8603 36.05C30.4467 36.2028 30.0712 36.4435 29.7597 36.7554C29.4481 37.0674 29.2079 37.4431 29.0556 37.8569L24.8993 49.1553C24.8695 49.2357 24.8158 49.305 24.7454 49.354C24.675 49.4029 24.5913 49.4292 24.5056 49.4292C24.4199 49.4292 24.3362 49.4029 24.2658 49.354C24.1954 49.305 24.1417 49.2357 24.1118 49.1553L19.9556 37.8547C19.8022 37.4418 19.5616 37.0668 19.2502 36.7554C18.9388 36.4439 18.5638 36.2033 18.1509 36.05L6.85247 31.8937C6.77209 31.8639 6.70277 31.8102 6.65381 31.7398C6.60486 31.6694 6.57862 31.5857 6.57862 31.5C6.57862 31.4143 6.60486 31.3306 6.65381 31.2602C6.70277 31.1898 6.77209 31.1361 6.85247 31.1062L18.1531 26.95C18.5666 26.7972 18.9421 26.5565 19.2537 26.2446C19.5653 25.9326 19.8055 25.5569 19.9578 25.1431L24.114 13.8447C24.1439 13.7643 24.1976 13.695 24.268 13.646C24.3384 13.5971 24.422 13.5708 24.5078 13.5708C24.5935 13.5708 24.6772 13.5971 24.7476 13.646C24.818 13.695 24.8717 13.7643 24.9015 13.8447L29.0578 25.1453C29.2106 25.5589 29.4513 25.9344 29.7632 26.2459C30.0751 26.5575 30.4509 26.7977 30.8647 26.95L42.1631 31.1062C42.2435 31.1361 42.3128 31.1898 42.3617 31.2602C42.4107 31.3306 42.4369 31.4143 42.4369 31.5C42.4369 31.5857 42.4107 31.6694 42.3617 31.7398C42.3128 31.8102 42.2435 31.8639 42.1631 31.8937H42.1609ZM31.9365 8.75C31.9365 8.4019 32.0748 8.06806 32.321 7.82192C32.5671 7.57578 32.9009 7.4375 33.249 7.4375H37.1865V3.5C37.1865 3.1519 37.3248 2.81806 37.571 2.57192C37.8171 2.32578 38.1509 2.1875 38.499 2.1875C38.8471 2.1875 39.181 2.32578 39.4271 2.57192C39.6733 2.81806 39.8115 3.1519 39.8115 3.5V7.4375H43.749C44.0971 7.4375 44.431 7.57578 44.6771 7.82192C44.9233 8.06806 45.0615 8.4019 45.0615 8.75C45.0615 9.0981 44.9233 9.43194 44.6771 9.67808C44.431 9.92422 44.0971 10.0625 43.749 10.0625H39.8115V14C39.8115 14.3481 39.6733 14.6819 39.4271 14.9281C39.181 15.1742 38.8471 15.3125 38.499 15.3125C38.1509 15.3125 37.8171 15.1742 37.571 14.9281C37.3248 14.6819 37.1865 14.3481 37.1865 14V10.0625H33.249C32.9009 10.0625 32.5671 9.92422 32.321 9.67808C32.0748 9.43194 31.9365 9.0981 31.9365 8.75ZM53.8115 19.25C53.8115 19.5981 53.6733 19.9319 53.4271 20.1781C53.181 20.4242 52.8471 20.5625 52.499 20.5625H50.3115V22.75C50.3115 23.0981 50.1733 23.4319 49.9271 23.6781C49.681 23.9242 49.3471 24.0625 48.999 24.0625C48.6509 24.0625 48.3171 23.9242 48.071 23.6781C47.8248 23.4319 47.6865 23.0981 47.6865 22.75V20.5625H45.499C45.1509 20.5625 44.8171 20.4242 44.571 20.1781C44.3248 19.9319 44.1865 19.5981 44.1865 19.25C44.1865 18.9019 44.3248 18.5681 44.571 18.3219C44.8171 18.0758 45.1509 17.9375 45.499 17.9375H47.6865V15.75C47.6865 15.4019 47.8248 15.0681 48.071 14.8219C48.3171 14.5758 48.6509 14.4375 48.999 14.4375C49.3471 14.4375 49.681 14.5758 49.9271 14.8219C50.1733 15.0681 50.3115 15.4019 50.3115 15.75V17.9375H52.499C52.8471 17.9375 53.181 18.0758 53.4271 18.3219C53.6733 18.5681 53.8115 18.9019 53.8115 19.25Z" fill="#FDFCFA"/>
</svg>
