<svg width="56" height="56" viewBox="0 0 56 56" fill="none" xmlns="http://www.w3.org/2000/svg">
<path d="M50.3142 29.8575C49.9498 34.097 48.3821 38.1443 45.7956 41.5232C43.209 44.902 39.7113 47.4718 35.7138 48.9302C31.7164 50.3886 27.3855 50.675 23.2308 49.7555C19.0762 48.8361 15.2705 46.7492 12.2616 43.7403C9.25275 40.7315 7.16584 36.9258 6.24643 32.7711C5.32702 28.6165 5.61337 24.2856 7.07178 20.2882C8.53019 16.2907 11.1 12.7929 14.4788 10.2064C17.8577 7.61987 21.9049 6.05218 26.1445 5.68778C26.4926 5.65877 26.838 5.76923 27.1046 5.99486C27.3713 6.22049 27.5374 6.54281 27.5664 6.89091C27.5954 7.239 27.4849 7.58436 27.2593 7.85102C27.0337 8.11767 26.7114 8.28377 26.3633 8.31278C22.621 8.63325 19.0482 10.016 16.0652 12.2983C13.0822 14.5806 10.8132 17.6674 9.52513 21.1956C8.2371 24.7238 7.98366 28.5465 8.79462 32.2138C9.60559 35.8811 11.4472 39.2405 14.1028 41.8967C16.7584 44.5528 20.1174 46.3951 23.7846 47.2068C27.4517 48.0185 31.2745 47.7659 34.8029 46.4786C38.3314 45.1913 41.4187 42.9229 43.7016 39.9404C45.9845 36.9578 47.368 33.3853 47.6892 29.6431C47.7036 29.4707 47.7517 29.3029 47.831 29.1491C47.9102 28.9954 48.0189 28.8588 48.151 28.747C48.4176 28.5214 48.763 28.411 49.1111 28.44C49.2834 28.4543 49.4513 28.5025 49.605 28.5817C49.7588 28.661 49.8954 28.7697 50.0071 28.9017C50.1188 29.0338 50.2034 29.1865 50.2561 29.3512C50.3088 29.516 50.3286 29.6895 50.3142 29.8618V29.8575ZM26.6892 15.7503V28.0003C26.6892 28.3484 26.8275 28.6822 27.0736 28.9284C27.3198 29.1745 27.6536 29.3128 28.0017 29.3128H40.2517C40.5998 29.3128 40.9336 29.1745 41.1798 28.9284C41.4259 28.6822 41.5642 28.3484 41.5642 28.0003C41.5642 27.6522 41.4259 27.3183 41.1798 27.0722C40.9336 26.8261 40.5998 26.6878 40.2517 26.6878H29.3142V15.7503C29.3142 15.4022 29.1759 15.0683 28.9298 14.8222C28.6836 14.5761 28.3498 14.4378 28.0017 14.4378C27.6536 14.4378 27.3198 14.5761 27.0736 14.8222C26.8275 15.0683 26.6892 15.4022 26.6892 15.7503ZM35.0017 10.0628C35.4343 10.0628 35.8573 9.93449 36.217 9.69412C36.5767 9.45375 36.8571 9.11211 37.0227 8.7124C37.1882 8.31269 37.2316 7.87285 37.1472 7.44852C37.0628 7.02419 36.8544 6.63441 36.5485 6.32848C36.2426 6.02256 35.8528 5.81422 35.4284 5.72981C35.0041 5.64541 34.5643 5.68873 34.1646 5.85429C33.7649 6.01986 33.4232 6.30024 33.1829 6.65997C32.9425 7.0197 32.8142 7.44263 32.8142 7.87528C32.8142 8.16255 32.8708 8.447 32.9807 8.7124C33.0906 8.9778 33.2518 9.21895 33.4549 9.42208C33.8651 9.83231 34.4215 10.0628 35.0017 10.0628ZM42.8767 15.3128C43.3093 15.3128 43.7323 15.1845 44.092 14.9441C44.4517 14.7038 44.7321 14.3621 44.8977 13.9624C45.0632 13.5627 45.1066 13.1229 45.0222 12.6985C44.9378 12.2742 44.7294 11.8844 44.4235 11.5785C44.1176 11.2726 43.7278 11.0642 43.3034 10.9798C42.8791 10.8954 42.4393 10.9387 42.0396 11.1043C41.6399 11.2699 41.2982 11.5502 41.0578 11.91C40.8175 12.2697 40.6892 12.6926 40.6892 13.1253C40.6892 13.7054 40.9197 14.2618 41.3299 14.6721C41.7401 15.0823 42.2965 15.3128 42.8767 15.3128ZM48.1267 23.1878C48.5593 23.1878 48.9823 23.0595 49.342 22.8191C49.7017 22.5788 49.9821 22.2371 50.1477 21.8374C50.3132 21.4377 50.3566 20.9979 50.2722 20.5735C50.1878 20.1492 49.9794 19.7594 49.6735 19.4535C49.3676 19.1476 48.9778 18.9392 48.5534 18.8548C48.1291 18.7704 47.6893 18.8137 47.2896 18.9793C46.8899 19.1449 46.5482 19.4252 46.3078 19.785C46.0675 20.1447 45.9392 20.5676 45.9392 21.0003C45.9392 21.5804 46.1697 22.1368 46.5799 22.5471C46.9901 22.9573 47.5465 23.1878 48.1267 23.1878Z" fill="#FDFCFA"/>
</svg>
