<svg width="56" height="56" viewBox="0 0 56 56" fill="none" xmlns="http://www.w3.org/2000/svg">
<path d="M28 5.6875C23.587 5.6875 19.2731 6.9961 15.6038 9.44783C11.9346 11.8996 9.07473 15.3843 7.38595 19.4614C5.69717 23.5385 5.25531 28.0248 6.11624 32.353C6.97717 36.6812 9.10223 40.6569 12.2227 43.7773C15.3431 46.8978 19.3189 49.0228 23.6471 49.8838C27.9753 50.7447 32.4616 50.3028 36.5386 48.6141C40.6157 46.9253 44.1004 44.0654 46.5522 40.3962C49.0039 36.7269 50.3125 32.413 50.3125 28C50.3056 22.0845 47.9526 16.4133 43.7697 12.2304C39.5868 8.04745 33.9155 5.69445 28 5.6875ZM35.9778 34.125C37.3305 32.3697 38.0641 30.216 38.0641 28C38.0641 25.784 37.3305 23.6303 35.9778 21.875L42.8116 15.0434C45.9547 18.627 47.6877 23.2311 47.6877 27.9978C47.6877 32.7645 45.9547 37.3686 42.8116 40.9522L35.9778 34.125ZM20.5625 28C20.5625 26.529 20.9987 25.091 21.816 23.8679C22.6332 22.6449 23.7948 21.6916 25.1538 21.1286C26.5128 20.5657 28.0083 20.4184 29.451 20.7054C30.8937 20.9924 32.219 21.7007 33.2591 22.7409C34.2993 23.781 35.0076 25.1063 35.2946 26.549C35.5816 27.9917 35.4343 29.4872 34.8714 30.8462C34.3084 32.2052 33.3552 33.3668 32.1321 34.1841C30.909 35.0013 29.471 35.4375 28 35.4375C26.0275 35.4375 24.1357 34.6539 22.7409 33.2591C21.3461 31.8643 20.5625 29.9725 20.5625 28ZM40.9544 13.1884L34.125 20.0222C32.3697 18.6695 30.216 17.9359 28 17.9359C25.784 17.9359 23.6303 18.6695 21.875 20.0222L15.0456 13.1884C18.6292 10.0453 23.2333 8.3123 28 8.3123C32.7667 8.3123 37.3708 10.0453 40.9544 13.1884ZM13.1884 15.0456L20.0222 21.875C18.6695 23.6303 17.9359 25.784 17.9359 28C17.9359 30.216 18.6695 32.3697 20.0222 34.125L13.1884 40.9544C10.0453 37.3708 8.31231 32.7667 8.31231 28C8.31231 23.2333 10.0453 18.6292 13.1884 15.0456ZM15.0456 42.8116L21.875 35.9778C23.6303 37.3305 25.784 38.0641 28 38.0641C30.216 38.0641 32.3697 37.3305 34.125 35.9778L40.9566 42.8116C37.373 45.9547 32.7689 47.6877 28.0022 47.6877C23.2355 47.6877 18.6314 45.9547 15.0478 42.8116H15.0456Z" fill="#FDFCFA"/>
</svg>
